<svg xmlns="http://www.w3.org/2000/svg" viewBox="0 0 512 512"><defs><linearGradient id="g" x1="0" y1="0" x2="1" y2="1"><stop stop-color="#10213A"/><stop offset="1" stop-color="#2563EB"/></linearGradient></defs><rect width="512" height="512" rx="112" fill="url(#g)"/><path d="M142 126h92c57 0 91 25 91 68 0 28-14 48-40 59 35 10 55 34 55 67 0 48-38 76-101 76h-97V126zm72 55v48h23c23 0 35-8 35-24 0-16-12-24-35-24h-23zm0 99v61h31c28 0 42-10 42-30 0-21-14-31-42-31h-31z" fill="#fff"/><path d="M291 355l45-45 35 35 66-76" fill="none" stroke="#fff" stroke-width="20" stroke-linecap="round" stroke-linejoin="round"/><path d="M397 269h40v40" fill="none" stroke="#fff" stroke-width="20" stroke-linecap="round" stroke-linejoin="round"/></svg>